HIERARCHY
ROOT root
{
	OFFSET	0	13.1	24.9
	CHANNELS 6  Xposition Yposition Zposition Xrotation Yrotation Zrotation
	JOINT spine_1
	{
		OFFSET	0	9.99999	0
		CHANNELS 3  Xrotation Yrotation Zrotation
		JOINT spine_2
		{
			OFFSET	0	112	-10
			CHANNELS 3  Xrotation Yrotation Zrotation
			JOINT spine_3
			{
				OFFSET	0	206.5	19.3
				CHANNELS 3  Xrotation Yrotation Zrotation
				JOINT spine_4
				{
					OFFSET	0	110.4	14.6
					CHANNELS 3  Xrotation Yrotation Zrotation
					JOINT neck_1
					{
						OFFSET	0	71.8	-50.3
						CHANNELS 3  Xrotation Yrotation Zrotation
						JOINT neck_2
						{
							OFFSET	0	86.2	-25.8
							CHANNELS 3  Xrotation Yrotation Zrotation
							JOINT head_ee
							{
								OFFSET	0	179.8	-8.7
								CHANNELS 3  Xrotation Yrotation Zrotation
								End Site
								{
									OFFSET	1	0	0
								}
							}
						}
					}
					JOINT left_clavicle
					{
						OFFSET	-43.2	22.4	-70.8
						CHANNELS 3  Xrotation Yrotation Zrotation
						JOINT left_shoulder
						{
							OFFSET	-93.9	-5.79999	48.7
							CHANNELS 3  Xrotation Yrotation Zrotation
							JOINT left_elbow
							{
								OFFSET	-291.4	-30.8	15.2
								CHANNELS 3  Xrotation Yrotation Zrotation
								JOINT left_lowarm_twist
								{
									OFFSET	-110.7	-3.89999	13.6
									CHANNELS 3  Xrotation Yrotation Zrotation
									JOINT left_hand
									{
										OFFSET	-110.7	-3.89999	13.6
										CHANNELS 3  Xrotation Yrotation Zrotation
										JOINT left_ee
										{
											OFFSET	-80.8	-5.10001	12.1
											CHANNELS 3  Xrotation Yrotation Zrotation
											End Site
											{
												OFFSET	1	0	0
											}
										}
									}
								}
							}
						}
					}
					JOINT right_clavicle
					{
						OFFSET	43.2	22.4	-70.8
						CHANNELS 3  Xrotation Yrotation Zrotation
						JOINT right_shoulder
						{
							OFFSET	93.9	-5.79999	48.7
							CHANNELS 3  Xrotation Yrotation Zrotation
							JOINT right_elbow
							{
								OFFSET	291.4	-30.8	15.2
								CHANNELS 3  Xrotation Yrotation Zrotation
								JOINT right_lowarm_twist
								{
									OFFSET	110.7	-3.89999	13.6
									CHANNELS 3  Xrotation Yrotation Zrotation
									JOINT right_hand
									{
										OFFSET	110.7	-3.89999	13.6
										CHANNELS 3  Xrotation Yrotation Zrotation
										JOINT right_ee
										{
											OFFSET	80.8	-5.10001	12.1
											CHANNELS 3  Xrotation Yrotation Zrotation
											End Site
											{
												OFFSET	1	0	0
											}
										}
									}
								}
							}
						}
					}
				}
			}
		}
	}
	JOINT left_hip
	{
		OFFSET	-82.8	-127.5	0.300001
		CHANNELS 3  Xrotation Yrotation Zrotation
		JOINT left_knee
		{
			OFFSET	-28.2	-396.7	2.2
			CHANNELS 3  Xrotation Yrotation Zrotation
			JOINT left_ankle
			{
				OFFSET	-11.7	-411.3	35.4
				CHANNELS 3  Xrotation Yrotation Zrotation
				JOINT left_toes
				{
					OFFSET	0	-60	-88.6
					CHANNELS 3  Xrotation Yrotation Zrotation
					JOINT left_foot_ee
					{
						OFFSET	-22.5	-16.5	-42.2
						CHANNELS 3  Xrotation Yrotation Zrotation
						End Site
						{
							OFFSET	1	0	0
						}
					}
				}
			}
		}
	}
	JOINT right_hip
	{
		OFFSET	82.8	-127.5	0.300001
		CHANNELS 3  Xrotation Yrotation Zrotation
		JOINT right_knee
		{
			OFFSET	28.2	-396.7	2.2
			CHANNELS 3  Xrotation Yrotation Zrotation
			JOINT right_ankle
			{
				OFFSET	11.7	-411.3	35.4
				CHANNELS 3  Xrotation Yrotation Zrotation
				JOINT right_toes
				{
					OFFSET	0	-60	-88.6
					CHANNELS 3  Xrotation Yrotation Zrotation
					JOINT right_foot_ee
					{
						OFFSET	22.5	-16.5	-42.2
						CHANNELS 3  Xrotation Yrotation Zrotation
						End Site
						{
							OFFSET	1	0	0
						}
					}
				}
			}
		}
	}
}
MOTION
Frames: 7
Frame Time: 0.02
1857.78 708.037 -1355.96 -28.6303 63.0671 20.5856 5.73034 0.92666 2.02447 5.73227 0.795989 2.07931 5.75891 0.560689 2.15467 5.75355 0.893874 2.03916 -17.3267 13.673 0.756425 -18.143 25.852 6.04316 -0.0 0.0 -0.0 -12.0523 25.3667 -13.4678 -17.5587 -25.023 70.2227 2.0307 -45.1648 0.844641 -19.5181 -1.08009 2.23782 1.42398 -8.33184 6.08812 -0.0 0.0 -0.0 10.9686 10.4142 -21.9649 -21.0932 46.4392 -62.9673 0.482088 13.4316 -0.0567672 44.808 0.622676 5.54624 -0.497205 -16.7571 -3.77603 0.0 0.0 0.0 18.8446 21.716 -3.72407 -48.3121 -1.07836 7.12002 36.9862 -17.7234 -4.98216 38.8677 -0.0 -0.0 -0.0 0.0 -0.0 11.3107 38.8833 -2.10005 8.69432 0.454292 1.25481 28.5207 -26.3603 3.9673 24.8319 -0.0 -0.0 0.0 0.0 0.0 
1845.34 705.302 -1355.44 -28.6518 63.5952 20.7835 5.89464 0.810456 1.94482 5.89648 0.685085 1.99242 5.91809 0.465722 2.05477 5.91306 0.784329 1.95549 -17.0216 14.3329 0.406497 -17.9162 27.2957 5.92958 -0.0 0.0 -0.0 -11.9447 25.1428 -13.422 -19.5096 -23.3272 71.235 1.85822 -42.6256 0.725025 -20.2877 -1.13789 2.31766 1.64886 -9.33063 7.18653 -0.0 0.0 -0.0 11.3411 11.3343 -22.7877 -18.9826 45.6199 -63.3718 0.476336 13.277 -0.0554387 44.0622 0.577241 5.46232 -0.335176 -12.7823 -3.14635 0.0 0.0 0.0 20.1921 19.2719 -3.64924 -48.2983 -1.07722 7.11823 37.4691 -13.129 -4.87955 40.0557 -0.0 -0.0 -0.0 0.0 -0.0 9.71597 35.8943 -1.61996 9.68313 0.517919 1.39288 32.454 -25.7525 4.40567 23.5448 -0.0 -0.0 0.0 0.0 0.0 
1835.39 707.191 -1354.38 -30.6319 65.1841 22.8083 6.10012 0.616001 1.84855 6.10188 0.497147 1.88398 6.11605 0.297141 1.92567 6.11138 0.597483 1.85461 -17.395 13.0383 0.715548 -18.1362 24.6588 5.74842 -0.0 0.0 -0.0 -11.3022 24.3673 -12.8481 -20.5561 -22.1112 71.6788 1.55135 -37.5395 0.527238 -20.7865 -1.17592 2.369 1.67613 -8.54092 7.7129 -0.0 0.0 -0.0 11.1052 13.1691 -22.2245 -17.7924 46.959 -63.0633 0.520435 14.4567 -0.0660083 43.8941 0.567152 5.44332 -0.288492 -13.8626 -3.88264 0.0 0.0 0.0 19.4556 18.7176 -2.8284 -46.079 -0.898082 6.8274 37.9994 -10.2355 -4.85434 40.1251 -0.0 -0.0 -0.0 0.0 -0.0 9.0636 34.0182 -1.34264 9.21372 0.487415 1.32747 32.7949 -25.93 4.4486 21.0008 -0.0 -0.0 0.0 0.0 0.0 
1823.0 703.912 -1354.55 -31.1384 66.2754 23.2855 6.22202 0.546922 1.83807 6.2238 0.428874 1.86913 6.23556 0.23473 1.90327 6.2309 0.53232 1.84235 -17.9604 13.1904 0.0814596 -18.7936 25.3176 5.37404 -0.0 0.0 -0.0 -10.7755 23.8907 -12.2854 -21.5373 -21.1082 71.7247 1.32109 -33.2003 0.393853 -21.078 -1.19836 2.39885 1.41569 -7.36859 6.44307 -0.0 0.0 -0.0 11.3593 12.9333 -22.8019 -16.061 46.8886 -62.6352 0.501906 13.9625 -0.06146 43.4415 0.540264 5.39203 -0.0227806 -10.1203 -4.0451 0.0 0.0 0.0 20.0691 12.5845 -1.57868 -41.8545 -0.588943 6.25591 33.8877 -3.43104 -4.34385 38.8173 -0.0 -0.0 -0.0 0.0 -0.0 8.27358 32.4274 -0.870065 8.07237 0.415499 1.16743 36.4195 -24.6001 4.799 20.2396 -0.0 -0.0 0.0 0.0 0.0 
1813.63 708.536 -1355.55 -31.6466 67.041 23.8624 6.34832 0.458409 1.83255 6.35012 0.340891 1.85799 6.35887 0.152361 1.88284 6.35421 0.447759 1.83518 -18.5648 12.7766 -0.0881837 -19.3953 24.6306 5.18121 -0.0 0.0 -0.0 -10.3979 23.8555 -11.7405 -22.3725 -20.4359 72.1372 1.14952 -29.6578 0.304346 -21.3272 -1.21766 2.42428 1.30994 -5.97986 6.31337 -0.0 0.0 -0.0 11.5293 13.2126 -23.1791 -14.7198 46.9198 -62.3384 0.495234 13.784 -0.0598604 43.134 0.522234 5.35707 0.171582 -7.37129 -4.18691 0.0 0.0 0.0 20.4809 8.23685 -0.862283 -38.126 -0.351869 5.73414 30.4031 1.82282 -3.94188 37.8594 -0.0 -0.0 -0.0 0.0 -0.0 7.66307 31.2662 -0.805794 7.21493 0.363586 1.04629 40.043 -23.6646 5.13022 19.2936 -0.0 -0.0 0.0 0.0 0.0 
1803.12 709.875 -1357.74 -30.127 67.3852 22.4769 6.32971 0.495221 1.83147 6.33149 0.377697 1.85926 6.34147 0.188299 1.88786 6.33682 0.484038 1.83446 -19.3435 12.9087 1.92915 -20.1573 23.8675 7.26848 -0.0 0.0 -0.0 -10.8968 24.0493 -12.3936 -24.0163 -20.0581 72.4211 1.09634 -28.5052 0.278495 -21.5594 -1.23573 2.44788 1.25041 -4.55075 6.50951 -0.0 0.0 -0.0 11.6397 13.4444 -23.4233 -13.7649 46.9508 -62.119 0.53419 14.8222 -0.0694848 42.7559 0.500312 5.31394 0.654649 -4.27216 -6.11252 0.0 0.0 0.0 23.1313 7.256 -0.999494 -34.239 -0.1415 5.1753 29.3679 4.3637 -3.82207 36.1695 -0.0 -0.0 -0.0 0.0 -0.0 6.43836 30.5489 -1.0878 6.50435 0.321945 0.945331 40.3674 -22.9946 5.14104 17.4547 -0.0 -0.0 0.0 0.0 0.0 
1793.84 710.003 -1359.1 -30.6307 68.0649 23.3822 6.35137 0.520776 1.8229 6.35313 0.403745 1.85233 6.36391 0.215666 1.88351 6.35932 0.510374 1.82584 -19.3484 12.5598 1.17887 -20.1504 23.581 6.42419 -0.0 0.0 -0.0 -10.7265 23.8904 -12.2126 -24.603 -19.9091 72.2491 0.94431 -25.069 0.20995 -21.0773 -1.1983 2.39877 1.17952 -4.54753 6.03042 -0.0 0.0 -0.0 11.8983 14.3174 -23.9873 -13.2683 47.0832 -61.4284 0.5674 15.6994 -0.0782264 42.9865 0.513647 5.34026 0.543405 -3.09869 -4.90079 0.0 0.0 0.0 24.3106 5.52516 -1.09783 -29.4316 0.0654169 4.46683 26.564 9.67801 -3.51523 36.6624 -0.0 -0.0 -0.0 0.0 -0.0 5.9321 29.8559 -1.50225 6.11576 0.299705 0.889908 41.4792 -23.8669 5.27071 18.3252 -0.0 -0.0 0.0 0.0 0.0 
